<svg width="23" height="23" viewBox="0 0 23 23" fill="none" xmlns="http://www.w3.org/2000/svg">
<rect width="22" height="23" fill="white"/>
<path fill-rule="evenodd" clip-rule="evenodd" d="M9.16397 12.2613C8.88105 12.0467 8.5037 11.9399 8.0395 11.9399H5.69507V14.6371H7.99628C8.20915 14.6371 8.41104 14.6182 8.601 14.5757C8.79385 14.5335 8.96491 14.4667 9.10913 14.3679C9.25335 14.273 9.37279 14.1427 9.45964 13.9771C9.54678 13.813 9.58854 13.5998 9.58854 13.3423C9.58854 12.8374 9.44655 12.4791 9.16397 12.2613Z" fill="#575757"/>
<path fill-rule="evenodd" clip-rule="evenodd" d="M8.82625 10.1933C9.0743 10.0122 9.19456 9.71297 9.19456 9.30256C9.19456 9.07463 9.15462 8.88628 9.0743 8.74015C8.99115 8.59396 8.8811 8.47956 8.74199 8.39949C8.60399 8.31614 8.44814 8.25856 8.26728 8.22752C8.0897 8.1928 7.90337 8.1792 7.71265 8.1792H5.69507V10.4679H7.87719C8.25934 10.4679 8.57568 10.3772 8.82625 10.1933Z" fill="#575757"/>
<path fill-rule="evenodd" clip-rule="evenodd" d="M0 0V23H23V0H0ZM13.9332 7.16801H17.9034V8.13452H13.9332V7.16801ZM11.4548 14.7456C11.263 15.1098 11.0019 15.4048 10.68 15.6326C10.3557 15.8623 9.98306 16.0308 9.56573 16.1405C9.15314 16.2502 8.72458 16.3054 8.28581 16.3054H3.53846V6.51097H8.1562C8.62475 6.51097 9.04749 6.55146 9.43394 6.63522C9.81822 6.71676 10.1462 6.85279 10.4233 7.03926C10.6961 7.22579 10.9096 7.47384 11.0625 7.78638C11.2118 8.09423 11.2866 8.47977 11.2866 8.93558C11.2866 9.42864 11.1748 9.84046 10.951 10.1697C10.7255 10.4984 10.3943 10.7681 9.95152 10.9775C10.5544 11.1507 11.0008 11.4558 11.2968 11.8896C11.5943 12.3264 11.7399 12.849 11.7399 13.4618C11.7399 13.9584 11.6447 14.3861 11.4548 14.7456ZM19.4492 13.2284H14.3317C14.3317 13.789 14.5212 14.3198 14.814 14.6047C15.1056 14.8896 15.5273 15.0329 16.0736 15.0329C16.4665 15.0329 16.8061 14.9336 17.0909 14.7356C17.3731 14.5379 17.5449 14.3265 17.6113 14.1069H19.3267C19.0511 14.9606 18.6327 15.57 18.0621 15.9369C17.498 16.3054 16.8101 16.489 16.0086 16.489C15.4499 16.489 14.9473 16.3985 14.4958 16.2204C14.0447 16.04 13.6677 15.7873 13.3507 15.4579C13.0416 15.1268 12.8015 14.7357 12.6304 14.276C12.4612 13.8189 12.3758 13.3128 12.3758 12.7643C12.3758 12.2341 12.4644 11.7386 12.6377 11.2808C12.8145 10.8214 13.059 10.425 13.3804 10.0925C13.7026 9.75812 14.0846 9.49425 14.5296 9.3016C14.9745 9.10962 15.4652 9.01302 16.0086 9.01302C16.6085 9.01302 17.1341 9.12847 17.5845 9.36368C18.0334 9.5956 18.4013 9.90997 18.6904 10.3035C18.9795 10.6963 19.1851 11.1456 19.3137 11.6495C19.4412 12.1526 19.4859 12.6782 19.4492 13.2284Z" fill="#575757"/>
<path fill-rule="evenodd" clip-rule="evenodd" d="M15.9501 10.4839C15.6389 10.4839 15.3813 10.5362 15.1751 10.643C14.9735 10.7483 14.8083 10.8794 14.6819 11.0338C14.5562 11.1907 14.4705 11.3563 14.4208 11.5333C14.3707 11.7059 14.3409 11.8624 14.3318 12.0008H17.5011C17.4546 11.5041 17.2846 11.1369 17.0522 10.8787C16.8207 10.6224 16.4285 10.4839 15.9501 10.4839Z" fill="#575757"/>
</svg>
