<svg width="50" height="33" viewBox="0 0 50 33" fill="none" xmlns="http://www.w3.org/2000/svg">
<path d="M23.8444 0.110687C22.2204 0.469837 20.5652 1.39114 19.722 2.40613C16.6926 6.07571 17.7857 11.2444 22.033 13.3524C23.173 13.9146 23.2354 13.9302 24.9999 13.9302C26.7176 13.9302 26.8738 13.8989 27.8731 13.4305C31.9331 11.5098 33.2292 6.74716 30.7151 2.96828C29.3722 0.938294 26.1555 -0.404616 23.8444 0.110687Z" fill="#DCDCDC"/>
<path d="M8.30723 6.84076C6.62078 7.32483 5.35595 8.38667 4.60642 9.91696C4.23165 10.6977 4.16919 10.9944 4.16919 12.2124C4.16919 13.4148 4.23165 13.7427 4.5908 14.5078C5.13733 15.679 6.05863 16.6627 7.16732 17.2249C7.99492 17.6309 8.21354 17.6777 9.63452 17.6777C11.0087 17.6777 11.2897 17.6309 12.0549 17.2561C13.1636 16.7096 14.1317 15.7414 14.6782 14.6484C15.053 13.8676 15.0999 13.6022 15.0999 12.2124C15.0999 10.8539 15.053 10.5416 14.7095 9.87011C14.1629 8.79266 13.0074 7.66836 11.93 7.18429C10.9306 6.74707 9.1973 6.5753 8.30723 6.84076Z" fill="#DCDCDC"/>
<path d="M39.1475 6.80953C37.5704 7.19991 36.0557 8.40228 35.3218 9.87011C34.9782 10.5416 34.9314 10.8539 34.9314 12.2124C34.9314 13.6022 34.9782 13.8676 35.353 14.6484C35.8995 15.7414 36.8677 16.7096 37.9764 17.2561C38.7415 17.6309 39.0226 17.6777 40.3967 17.6777C41.8177 17.6777 42.0363 17.6309 42.8796 17.2093C43.957 16.6627 44.8939 15.6634 45.4561 14.4766C45.7996 13.7427 45.8621 13.3992 45.8621 12.2124C45.8621 10.9944 45.7996 10.6821 45.4405 9.94819C44.2693 7.55906 41.5835 6.21615 39.1475 6.80953Z" fill="#DCDCDC"/>
<path d="M22.6733 15.5228C19.9407 15.9756 17.4266 17.1311 15.7245 18.7239L14.5378 19.8326L13.4916 19.5047C12.3985 19.1611 10.3529 18.7864 10.228 18.9113C10.1811 18.9425 10.4778 20.629 10.8682 22.6433C11.2586 24.6421 11.5865 26.4378 11.5865 26.594C11.5865 26.9063 9.91568 28.6864 9.61899 28.6864C9.5253 28.6864 9.05684 28.2336 8.55715 27.6714L7.66708 26.6564L8.29169 23.4085C8.61961 21.6283 8.96315 19.8638 9.00999 19.489L9.1193 18.802L8.36977 18.9113C4.7158 19.4266 1.93629 21.1443 0.702686 23.6583L0.109307 24.8451L0.062461 28.6396L0 32.4341H25H50V29.2642C50 27.5153 49.9219 25.6727 49.8282 25.1574C49.2505 22.0031 46.0337 19.5359 41.6927 18.9113C41.0369 18.8332 40.9432 18.8488 40.9432 19.0831C40.9432 19.2392 41.2711 21.0037 41.6615 23.0181L42.3798 26.6877L42.005 27.0937C41.7864 27.3279 41.3804 27.7807 41.0993 28.1087C40.8182 28.421 40.5059 28.6864 40.4122 28.6864C40.1156 28.6864 38.4447 26.9063 38.4447 26.5784C38.4447 26.3441 39.1943 22.2529 39.7876 19.2704C39.8501 18.9737 39.8189 18.8488 39.6627 18.8488C39.1786 18.8488 37.5234 19.1924 36.524 19.5047L35.4778 19.8326L34.4941 18.8957C32.7764 17.2561 30.5278 16.1474 27.8732 15.6321C27.233 15.5072 26.4678 15.4135 26.1711 15.4135C25.6871 15.4135 25.6558 15.4447 25.7339 15.8351C25.7651 16.0849 26.0931 17.7401 26.4366 19.5515C26.7801 21.3629 27.1705 23.3929 27.2954 24.0799L27.5141 25.3291L26.3117 26.5315C25.6402 27.203 25.0312 27.7339 24.9375 27.7339C24.8595 27.7183 24.2661 27.1717 23.6415 26.5003L22.4859 25.2823L23.1418 21.9563C23.4853 20.1137 23.8757 18.0524 24.0162 17.3654C24.1412 16.6783 24.2817 15.96 24.3285 15.757C24.391 15.4447 24.3442 15.4135 23.7352 15.4291C23.3604 15.4447 22.8919 15.4915 22.6733 15.5228Z" fill="#DCDCDC"/>
</svg>
