<svg width="23" height="23" viewBox="0 0 23 23" fill="none" xmlns="http://www.w3.org/2000/svg">
<rect width="23" height="23" fill="#575757"/>
<rect x="3.67993" y="3.68018" width="15.64" height="15.64" fill="white"/>
<path d="M21.1717 0.525391H1.83063C0.818136 0.525391 0 1.34276 0 2.35371V20.6469C0 21.6548 0.818136 22.4745 1.83063 22.4745H21.1717C22.1796 22.4745 23 21.6556 23 20.6469V2.35371C22.9992 1.34276 22.1788 0.525391 21.1717 0.525391ZM15.4601 7.04206C14.9846 6.76397 14.6074 6.54426 14.1334 6.54426C13.6694 6.54426 13.273 6.66026 13.0702 6.85538C12.8674 7.04897 12.7668 7.42385 12.7668 7.97773V8.7974H15.2473L14.7103 11.0774H12.7668V18.6534H9.65094V11.0774H8.19673V8.7974H9.65247V7.92703C9.65247 7.01056 9.76232 6.46206 9.97896 6.00959C10.1948 5.55866 10.6135 5.05625 11.1958 4.77202C11.7773 4.48855 12.6377 4.34566 13.5281 4.34566C14.4407 4.34566 15.1536 4.64987 16.0278 4.89493L15.4601 7.04206Z" fill="#575757"/>
</svg>
