<svg width="23" height="23" viewBox="0 0 23 23" fill="none" xmlns="http://www.w3.org/2000/svg">
<rect width="23" height="23" fill="#575757"/>
<rect x="2" y="2" width="19" height="19" fill="white"/>
<path d="M21.7348 1.26518C20.891 0.421342 19.8756 0 18.6876 0H4.31243C3.12438 0 2.10901 0.421342 1.26518 1.26518C0.421342 2.10901 0 3.12438 0 4.31243V18.6876C0 19.8756 0.421342 20.891 1.26518 21.7348C2.10901 22.5787 3.12438 23 4.31243 23H7.66705C7.88578 23 8.0504 22.9919 8.16092 22.977C8.2895 22.9512 8.40556 22.8826 8.49016 22.7824C8.59953 22.6673 8.65479 22.5004 8.65479 22.2816L8.64673 21.2628C8.64212 20.6135 8.63982 20.1001 8.63982 19.7202L8.29446 19.7801C8.07573 19.8204 7.79944 19.8376 7.46444 19.833C7.11526 19.8266 6.7672 19.7915 6.42374 19.7283C6.05812 19.6608 5.71394 19.5068 5.41989 19.2793C5.11193 19.0463 4.88225 18.7251 4.7614 18.3583L4.61174 18.013C4.4856 17.7405 4.32713 17.4843 4.13975 17.2497C3.92562 16.97 3.70804 16.7812 3.48816 16.681L3.38455 16.6062C3.31231 16.5544 3.24659 16.4941 3.18885 16.4266C3.1337 16.3639 3.08829 16.2933 3.05416 16.2171C3.02423 16.1469 3.04955 16.0893 3.12899 16.0444C3.20957 15.9983 3.35347 15.9765 3.56414 15.9765L3.86346 16.0225C4.06262 16.0617 4.31013 16.1814 4.60368 16.3805C4.90077 16.5831 5.14893 16.8493 5.3301 17.1599C5.56034 17.5686 5.83663 17.8806 6.16127 18.0959C6.48591 18.31 6.81285 18.4182 7.1421 18.4182C7.47134 18.4182 7.75569 18.3929 7.9963 18.3434C8.22897 18.2952 8.45506 18.2195 8.66975 18.1177C8.75955 17.45 9.0036 16.9343 9.40307 16.5751C8.88546 16.5244 8.37246 16.4343 7.86851 16.3057C7.37671 16.1706 6.90373 15.9745 6.46058 15.7221C5.99693 15.4696 5.5874 15.1286 5.25527 14.7182C4.93638 14.3187 4.67391 13.7949 4.46899 13.1468C4.26523 12.4975 4.16277 11.7481 4.16277 10.8996C4.16277 9.69203 4.55648 8.664 5.34506 7.81441C4.97668 6.90725 5.01121 5.88843 5.44982 4.7614C5.73993 4.67045 6.16933 4.73838 6.73803 4.96286C7.30672 5.18735 7.72346 5.3796 7.98824 5.53847C8.25302 5.69963 8.46484 5.83433 8.62486 5.94369C9.56076 5.68323 10.528 5.55231 11.4994 5.55458C12.4883 5.55458 13.4461 5.68467 14.3751 5.94369L14.9438 5.58451C15.3813 5.32187 15.8427 5.10138 16.3218 4.92602C16.8514 4.72571 17.2543 4.67161 17.5352 4.7614C17.9842 5.88958 18.0233 6.90725 17.6538 7.81556C18.4424 8.664 18.8372 9.69203 18.8372 10.9008C18.8372 11.7492 18.7348 12.501 18.5299 13.1537C18.3261 13.8076 18.0613 14.3314 17.7367 14.7263C17.412 15.1211 17.008 15.4515 16.5245 15.7221C16.0409 15.9914 15.5712 16.186 15.1165 16.3057C14.6126 16.4347 14.0996 16.5252 13.582 16.5763C14.1 17.0252 14.3602 17.7332 14.3602 18.7014V22.2816C14.3602 22.4509 14.3844 22.5879 14.435 22.6926C14.4583 22.7431 14.4915 22.7884 14.5326 22.8257C14.5738 22.8631 14.622 22.8918 14.6745 22.9102C14.785 22.9493 14.8817 22.9747 14.9669 22.9839C15.0521 22.9954 15.1741 22.9988 15.3329 22.9988H18.6876C19.8756 22.9988 20.891 22.5775 21.7348 21.7337C22.5775 20.891 23 19.8745 23 18.6864V4.31243C23 3.12438 22.5775 2.10901 21.7337 1.26518H21.7348Z" fill="#575757"/>
</svg>
