<svg xmlns="http://www.w3.org/2000/svg" xmlns:xlink="http://www.w3.org/1999/xlink">

    <symbol id="behance" viewBox="0 0 24 24">
        <title> Behance Icon </title>
        <svg width="24px" height="24px" viewBox="0 0 24 24" xmlns="http://www.w3.org/2000/svg">
            <g>
                <path fill="none" d="M0 0h24v24H0z" />
                <path fill-rule="nonzero"
                    d="M7.443 5.35c.639 0 1.23.05 1.77.198a3.83 3.83 0 0 1 1.377.544c.394.247.689.594.885 1.039.197.445.295.99.295 1.583 0 .693-.147 1.286-.491 1.731-.295.446-.787.841-1.377 1.138.836.248 1.475.693 1.868 1.286.394.594.64 1.336.64 2.177 0 .693-.148 1.286-.394 1.781-.246.495-.639.94-1.082 1.237a5.078 5.078 0 0 1-1.573.692c-.59.149-1.18.248-1.77.248H1V5.35h6.443zm-.394 5.54c.541 0 .984-.148 1.328-.395.344-.247.492-.693.492-1.237 0-.297-.05-.594-.148-.791-.098-.198-.246-.347-.442-.495-.197-.099-.394-.198-.64-.247-.246-.05-.491-.05-.787-.05H4v3.216h3.05zm.148 5.838c.295 0 .59-.05.836-.099a1.72 1.72 0 0 0 .688-.297 1.76 1.76 0 0 0 .492-.544c.098-.247.197-.544.197-.89 0-.693-.197-1.188-.59-1.534-.394-.297-.935-.445-1.574-.445H4v3.81h3.197zm9.492-.05c.393.396.983.594 1.77.594.541 0 1.033-.148 1.426-.395.394-.297.64-.594.738-.891h2.41c-.394 1.187-.984 2.028-1.77 2.572-.788.495-1.722.792-2.853.792a5.753 5.753 0 0 1-2.115-.396 3.93 3.93 0 0 1-1.574-1.088 3.93 3.93 0 0 1-.983-1.633c-.246-.643-.345-1.335-.345-2.127 0-.742.099-1.434.345-2.078a5.34 5.34 0 0 1 1.032-1.682c.443-.445.984-.84 1.574-1.088a5.49 5.49 0 0 1 2.066-.396c.836 0 1.574.149 2.213.495.64.346 1.131.742 1.525 1.336a6.01 6.01 0 0 1 .885 1.88c.098.692.147 1.385.098 2.176H16c0 .792.295 1.534.689 1.93zm3.098-5.194c-.344-.346-.885-.544-1.525-.544-.442 0-.787.099-1.082.247-.295.149-.491.347-.688.545a1.322 1.322 0 0 0-.344.692c-.05.248-.099.445-.099.643h4.426c-.098-.742-.344-1.236-.688-1.583zM15.459 6.29h5.508v1.336H15.46V6.29z" />
            </g>
        </svg>

    </symbol>

    <symbol id="facebook" viewBox="0 0 310 310">
        <title> Facebook Icon </title>
        <svg x="0px" y="0px" viewBox="0 0 310 310">
            <g id="XMLID_834_">
                <path id="XMLID_835_" d="M81.703,165.106h33.981V305c0,2.762,2.238,5,5,5h57.616c2.762,0,5-2.238,5-5V165.765h39.064
		c2.54,0,4.677-1.906,4.967-4.429l5.933-51.502c0.163-1.417-0.286-2.836-1.234-3.899c-0.949-1.064-2.307-1.673-3.732-1.673h-44.996
		V71.978c0-9.732,5.24-14.667,15.576-14.667c1.473,0,29.42,0,29.42,0c2.762,0,5-2.239,5-5V5.037c0-2.762-2.238-5-5-5h-40.545
		C187.467,0.023,186.832,0,185.896,0c-7.035,0-31.488,1.381-50.804,19.151c-21.402,19.692-18.427,43.27-17.716,47.358v37.752H81.703
		c-2.762,0-5,2.238-5,5v50.844C76.703,162.867,78.941,165.106,81.703,165.106z" />
            </g>
            <g>
            </g>
            <g>
            </g>
            <g>
            </g>
            <g>
            </g>
            <g>
            </g>
            <g>
            </g>
            <g>
            </g>
            <g>
            </g>
            <g>
            </g>
            <g>
            </g>
            <g>
            </g>
            <g>
            </g>
            <g>
            </g>
            <g>
            </g>
            <g>
            </g>
        </svg>
    </symbol>

    <symbol id="employee" viewBox="0 0 50 33">
        <title> Employee Icon </title>
        <svg width="50" height="33" viewBox="0 0 50 33" xmlns="http://www.w3.org/2000/svg">
            <path
                d="M23.8444 0.110687C22.2204 0.469837 20.5652 1.39114 19.722 2.40613C16.6926 6.07571 17.7857 11.2444 22.033 13.3524C23.173 13.9146 23.2354 13.9302 24.9999 13.9302C26.7176 13.9302 26.8738 13.8989 27.8731 13.4305C31.9331 11.5098 33.2292 6.74716 30.7151 2.96828C29.3722 0.938294 26.1555 -0.404616 23.8444 0.110687Z" fill=""
                 />
            <path
                d="M8.30723 6.84076C6.62078 7.32483 5.35595 8.38667 4.60642 9.91696C4.23165 10.6977 4.16919 10.9944 4.16919 12.2124C4.16919 13.4148 4.23165 13.7427 4.5908 14.5078C5.13733 15.679 6.05863 16.6627 7.16732 17.2249C7.99492 17.6309 8.21354 17.6777 9.63452 17.6777C11.0087 17.6777 11.2897 17.6309 12.0549 17.2561C13.1636 16.7096 14.1317 15.7414 14.6782 14.6484C15.053 13.8676 15.0999 13.6022 15.0999 12.2124C15.0999 10.8539 15.053 10.5416 14.7095 9.87011C14.1629 8.79266 13.0074 7.66836 11.93 7.18429C10.9306 6.74707 9.1973 6.5753 8.30723 6.84076Z" fill=""
                 />
            <path
                d="M39.1475 6.80953C37.5704 7.19991 36.0557 8.40228 35.3218 9.87011C34.9782 10.5416 34.9314 10.8539 34.9314 12.2124C34.9314 13.6022 34.9782 13.8676 35.353 14.6484C35.8995 15.7414 36.8677 16.7096 37.9764 17.2561C38.7415 17.6309 39.0226 17.6777 40.3967 17.6777C41.8177 17.6777 42.0363 17.6309 42.8796 17.2093C43.957 16.6627 44.8939 15.6634 45.4561 14.4766C45.7996 13.7427 45.8621 13.3992 45.8621 12.2124C45.8621 10.9944 45.7996 10.6821 45.4405 9.94819C44.2693 7.55906 41.5835 6.21615 39.1475 6.80953Z"
                 fill="" />
            <path
                d="M22.6733 15.5228C19.9407 15.9756 17.4266 17.1311 15.7245 18.7239L14.5378 19.8326L13.4916 19.5047C12.3985 19.1611 10.3529 18.7864 10.228 18.9113C10.1811 18.9425 10.4778 20.629 10.8682 22.6433C11.2586 24.6421 11.5865 26.4378 11.5865 26.594C11.5865 26.9063 9.91568 28.6864 9.61899 28.6864C9.5253 28.6864 9.05684 28.2336 8.55715 27.6714L7.66708 26.6564L8.29169 23.4085C8.61961 21.6283 8.96315 19.8638 9.00999 19.489L9.1193 18.802L8.36977 18.9113C4.7158 19.4266 1.93629 21.1443 0.702686 23.6583L0.109307 24.8451L0.062461 28.6396L0 32.4341H25H50V29.2642C50 27.5153 49.9219 25.6727 49.8282 25.1574C49.2505 22.0031 46.0337 19.5359 41.6927 18.9113C41.0369 18.8332 40.9432 18.8488 40.9432 19.0831C40.9432 19.2392 41.2711 21.0037 41.6615 23.0181L42.3798 26.6877L42.005 27.0937C41.7864 27.3279 41.3804 27.7807 41.0993 28.1087C40.8182 28.421 40.5059 28.6864 40.4122 28.6864C40.1156 28.6864 38.4447 26.9063 38.4447 26.5784C38.4447 26.3441 39.1943 22.2529 39.7876 19.2704C39.8501 18.9737 39.8189 18.8488 39.6627 18.8488C39.1786 18.8488 37.5234 19.1924 36.524 19.5047L35.4778 19.8326L34.4941 18.8957C32.7764 17.2561 30.5278 16.1474 27.8732 15.6321C27.233 15.5072 26.4678 15.4135 26.1711 15.4135C25.6871 15.4135 25.6558 15.4447 25.7339 15.8351C25.7651 16.0849 26.0931 17.7401 26.4366 19.5515C26.7801 21.3629 27.1705 23.3929 27.2954 24.0799L27.5141 25.3291L26.3117 26.5315C25.6402 27.203 25.0312 27.7339 24.9375 27.7339C24.8595 27.7183 24.2661 27.1717 23.6415 26.5003L22.4859 25.2823L23.1418 21.9563C23.4853 20.1137 23.8757 18.0524 24.0162 17.3654C24.1412 16.6783 24.2817 15.96 24.3285 15.757C24.391 15.4447 24.3442 15.4135 23.7352 15.4291C23.3604 15.4447 22.8919 15.4915 22.6733 15.5228Z" fill=""
                 />
        </svg>
    </symbol>

    <symbol id="github" viewBox="0 0 15 15">
        <title> Github Icon </title>
        <svg width="15px" height="15px" viewBox="0 0 15 15" xmlns="http://www.w3.org/2000/svg">
            <path
                d="M9.35762 2.14496C8.13548 1.86102 6.86444 1.86102 5.6423 2.14497C4.93642 1.71169 4.39704 1.51286 4.00502 1.42909C3.79189 1.38354 3.62296 1.37216 3.4959 1.37556C3.43249 1.37725 3.38001 1.38261 3.33821 1.38905C3.31733 1.39226 3.29919 1.39573 3.28375 1.39911C3.27603 1.4008 3.26899 1.40247 3.26264 1.40408L3.25362 1.40643L3.2495 1.40756L3.24753 1.40811L3.24563 1.40865C3.24562 1.40865 3.24563 1.40864 3.24563 1.40865C3.2452 1.40884 3.24731 1.41452 3.38299 1.88895L3.24563 1.40865C3.1036 1.44926 2.9868 1.55061 2.92657 1.68549C2.75841 2.06202 2.66657 2.46816 2.65635 2.88041C2.64875 3.18677 2.68634 3.49199 2.76743 3.78633C2.55433 4.04445 2.3807 4.33349 2.25276 4.64407C2.08484 5.05173 1.99894 5.4885 1.99998 5.92939C2.00011 7.48194 2.45815 8.52582 3.23873 9.19657C3.78563 9.66653 4.45048 9.91658 5.11619 10.0598C5.00626 10.3652 4.97773 10.6883 4.99998 11.0176V11.6158C4.59263 11.7015 4.31135 11.6744 4.11082 11.6082C3.85884 11.525 3.66566 11.3578 3.48139 11.1175C3.38806 10.9959 3.30208 10.8623 3.21179 10.7161L3.15448 10.6228C3.08377 10.5073 3.00746 10.3828 2.93045 10.2692C2.73964 9.9878 2.45813 9.63616 2.00195 9.51639L1.51834 9.38942L1.2644 10.3566L1.74801 10.4836C1.82746 10.5045 1.93204 10.5786 2.10279 10.8304C2.16553 10.9229 2.22538 11.0206 2.29372 11.1321C2.31518 11.1671 2.33753 11.2036 2.36102 11.2417C2.45488 11.3936 2.56253 11.5627 2.68796 11.7262C2.94119 12.0563 3.28597 12.389 3.79742 12.5578C4.14883 12.6738 4.54603 12.7016 4.99998 12.6319V14.5C4.99998 14.7761 5.22384 15 5.49998 15H9.49998C9.77613 15 9.99998 14.7761 9.99998 14.5V10.9375C9.99998 10.6217 9.98623 10.333 9.89735 10.0636C10.5597 9.92381 11.2193 9.67353 11.7626 9.20319C12.5429 8.52773 13 7.47445 13 5.9125L13 5.91089C12.9975 5.13212 12.7242 4.38197 12.2325 3.78635C12.3136 3.492 12.3512 3.18678 12.3436 2.88041C12.3334 2.46816 12.2416 2.06202 12.0734 1.68549C12.0131 1.55057 11.8963 1.44921 11.7542 1.40861L11.6169 1.88937C11.7542 1.40861 11.7528 1.40821 11.7523 1.40807L11.7504 1.40752L11.7462 1.4064L11.7372 1.40405C11.7309 1.40245 11.7238 1.40078 11.7161 1.39909C11.7007 1.39571 11.6826 1.39225 11.6617 1.38904C11.6199 1.38261 11.5674 1.37725 11.504 1.37556C11.3769 1.37216 11.2079 1.38354 10.9947 1.42908C10.6026 1.51286 10.0633 1.71168 9.35762 2.14496Z" />
        </svg>

    </symbol>

    <symbol id="insta" viewBox="0 0 300 300">
        <title> Insta Icon </title>
      <svg x="0px" y="0px"
	 viewBox="0 0 300 300" style="enable-background:new 0 0 300 300;" xml:space="preserve">
        <g id="XMLID_504_">
	<path id="XMLID_505_" d="M38.52,0.012h222.978C282.682,0.012,300,17.336,300,38.52v222.978c0,21.178-17.318,38.49-38.502,38.49
		H38.52c-21.184,0-38.52-17.313-38.52-38.49V38.52C0,17.336,17.336,0.012,38.52,0.012z M218.546,33.329
		c-7.438,0-13.505,6.091-13.505,13.525v32.314c0,7.437,6.067,13.514,13.505,13.514h33.903c7.426,0,13.506-6.077,13.506-13.514
		V46.854c0-7.434-6.08-13.525-13.506-13.525H218.546z M266.084,126.868h-26.396c2.503,8.175,3.86,16.796,3.86,25.759
		c0,49.882-41.766,90.34-93.266,90.34c-51.487,0-93.254-40.458-93.254-90.34c0-8.963,1.37-17.584,3.861-25.759H33.35v126.732
		c0,6.563,5.359,11.902,11.916,11.902h208.907c6.563,0,11.911-5.339,11.911-11.902V126.868z M150.283,90.978
		c-33.26,0-60.24,26.128-60.24,58.388c0,32.227,26.98,58.375,60.24,58.375c33.278,0,60.259-26.148,60.259-58.375
		C210.542,117.105,183.561,90.978,150.283,90.978z"/>
        </g>
</svg>




    </symbol>

    <symbol id="linkedin" viewBox="0 0 310 310">
        <title> LinkedIn Icon </title>
        <svg viewBox="0 0 310 310">
            <g id="XMLID_801_">
                <path id="XMLID_802_" d="M72.16,99.73H9.927c-2.762,0-5,2.239-5,5v199.928c0,2.762,2.238,5,5,5H72.16c2.762,0,5-2.238,5-5V104.73
                    C77.16,101.969,74.922,99.73,72.16,99.73z" />
                <path id="XMLID_803_" d="M41.066,0.341C18.422,0.341,0,18.743,0,41.362C0,63.991,18.422,82.4,41.066,82.4
                    c22.626,0,41.033-18.41,41.033-41.038C82.1,18.743,63.692,0.341,41.066,0.341z" />
                <path id="XMLID_804_" d="M230.454,94.761c-24.995,0-43.472,10.745-54.679,22.954V104.73c0-2.761-2.238-5-5-5h-59.599
                    c-2.762,0-5,2.239-5,5v199.928c0,2.762,2.238,5,5,5h62.097c2.762,0,5-2.238,5-5v-98.918c0-33.333,9.054-46.319,32.29-46.319
                    c25.306,0,27.317,20.818,27.317,48.034v97.204c0,2.762,2.238,5,5,5H305c2.762,0,5-2.238,5-5V194.995
                    C310,145.43,300.549,94.761,230.454,94.761z" />
            </g>
            <g>
            </g>
            <g>
            </g>
            <g>
            </g>
            <g>
            </g>
            <g>
            </g>
            <g>
            </g>
            <g>
            </g>
            <g>
            </g>
            <g>
            </g>
            <g>
            </g>
            <g>
            </g>
            <g>
            </g>
            <g>
            </g>
            <g>
            </g>
            <g>
            </g>
        </svg>
    </symbol>

    <symbol id="web" viewBox="0 0 31.416 31.416">
        <title> Web Icon </title>
        <svg x="0px" y="0px" width="31.416px" height="31.416px" viewBox="0 0 31.416 31.416"
            style="enable-background:new 0 0 31.416 31.416;" xml:space="preserve">
            <g>
                <g>
                    <path d="M28.755,6.968l-0.47,0.149L25.782,7.34l-0.707,1.129l-0.513-0.163L22.57,6.51l-0.289-0.934L21.894,4.58l-1.252-1.123
			l-1.477-0.289l-0.034,0.676l1.447,1.412l0.708,0.834L20.49,6.506l-0.648-0.191L18.871,5.91l0.033-0.783l-1.274-0.524l-0.423,1.841
			l-1.284,0.291l0.127,1.027l1.673,0.322l0.289-1.641l1.381,0.204l0.642,0.376h1.03l0.705,1.412l1.869,1.896l-0.137,0.737
			l-1.507-0.192l-2.604,1.315l-1.875,2.249l-0.244,0.996h-0.673l-1.254-0.578l-1.218,0.578l0.303,1.285l0.53-0.611l0.932-0.029
			l-0.065,1.154l0.772,0.226l0.771,0.866l1.259-0.354l1.438,0.227l1.67,0.449l0.834,0.098l1.414,1.605l2.729,1.605l-1.765,3.372
			l-1.863,0.866l-0.707,1.927l-2.696,1.8l-0.287,1.038c6.892-1.66,12.019-7.851,12.019-15.253
			C31.413,12.474,30.433,9.465,28.755,6.968z" />
                    <path d="M17.515,23.917l-1.144-2.121l1.05-2.188l-1.05-0.314l-1.179-1.184l-2.612-0.586l-0.867-1.814v1.077h-0.382l-2.251-3.052
			v-2.507L7.43,8.545L4.81,9.012H3.045L2.157,8.43L3.29,7.532L2.16,7.793c-1.362,2.326-2.156,5.025-2.156,7.916
			c0,8.673,7.031,15.707,15.705,15.707c0.668,0,1.323-0.059,1.971-0.137l-0.164-1.903c0,0,0.721-2.826,0.721-2.922
			C18.236,26.357,17.515,23.917,17.515,23.917z" />
                    <path d="M5.84,5.065l2.79-0.389l1.286-0.705l1.447,0.417l2.312-0.128l0.792-1.245l1.155,0.19l2.805-0.263L19.2,2.09l1.09-0.728
			l1.542,0.232l0.562-0.085C20.363,0.553,18.103,0,15.708,0C10.833,0,6.474,2.222,3.596,5.711h0.008L5.84,5.065z M16.372,1.562
			l1.604-0.883l1.03,0.595l-1.491,1.135l-1.424,0.143l-0.641-0.416L16.372,1.562z M11.621,1.691l0.708,0.295l0.927-0.295
			l0.505,0.875l-2.14,0.562l-1.029-0.602C10.591,2.526,11.598,1.878,11.621,1.691z" />
                </g>
            </g>
            <g>
            </g>
            <g>
            </g>
            <g>
            </g>
            <g>
            </g>
            <g>
            </g>
            <g>
            </g>
            <g>
            </g>
            <g>
            </g>
            <g>
            </g>
            <g>
            </g>
            <g>
            </g>
            <g>
            </g>
            <g>
            </g>
            <g>
            </g>
            <g>
            </g>
        </svg>

    </symbol>

    <symbol id="specxviu" viewBox="0 0 11 19">
        <title> Spx Icon </title>
        <svg width="11" height="19" viewBox="0 0 11 19" fill="none">
        <g xmlns="http://www.w3.org/2000/svg" id="Layer_2" data-name="Layer 2"><g id="Layer_1-2" data-name="Layer 1"><path class="cls-1" d="M9.27,23.19c1-1.25,2.16-2.58,3.47-4l.61-.55.13,0,0,.42c-.28,0-.43.08-.42.25l0,.14c.1,0,.51-.35,1.21-1.06l-.42,0v-.28c.06-.17.14-.26.32-.27h.28l0,.42c.07,0,.2-.14.44-.39l-.13-.3a.6.6,0,0,1,.08-.16l-2.61-5.86a9.38,9.38,0,0,0-4.54,7.13A8.5,8.5,0,0,0,8,21.75Z"/><path class="cls-1" d="M12.4,21.59l-.59.42.11.26c.42-.23.61-.37.61-.55v-.14Zm3.12-2.51-.11-.25h0c-.18.15-.41.4-.73.73a4.08,4.08,0,0,1-1.22,1.1c0-.21-.06-.29-.24-.32,0,.28-.13.44-.3.42l-.15,0v-.29l-.14,0c0,.18-.12.34-.32.56.1,0,.13.05.12.15a.74.74,0,0,1-.41.12l.1.3,0,.14c-.28,0-.62.41-.95,1.24-.35.32-.71.69-1.09,1.09l.66.74c1.21-1.49,2.39-2.82,3.56-4l-.1-.3Z"/><path class="cls-1" d="M17.74,24.05l-.13-.28-1.39,1.34.21-.11.73-.34A5.17,5.17,0,0,0,17.74,24.05Z"/><path class="cls-1" d="M13.06,27.42c.3-.26.86-.74,1.56-1.25.46-.34.84-.61,1.27-.87h0l0-.14c.5-.56,1-1.13,1.58-1.71l-.4-.88c-1.61,1.59-3.06,3.09-4.33,4.5Z"/><path class="cls-1" d="M17.86,24.4h0v0Z"/><path class="cls-1" d="M21.79,8.66c1.24-.91,2.34-1.75,3.32-2.52-.21-2.41-.4-4.6-.52-6.14-2,.5-5.24,1.81-6.66,5.21a8.71,8.71,0,0,0-.68,3l1,3.86C19,11.37,20.18,10.23,21.79,8.66Z"/><path class="cls-1" d="M19,15.45l0,.05,0-.06Z"/><path class="cls-1" d="M18.61,13.72c1.74-1.61,2.87-2.41,3.37-2.39a5.2,5.2,0,0,1,1.8-1.51,6.21,6.21,0,0,1,1.54-1.27c-.05-.52-.09-1-.14-1.55q-4.5,3.89-6.77,5.92Z"/><polygon class="cls-1" points="20.45 21.08 20.45 21.1 20.46 21.08 20.45 21.08"/><path class="cls-1" d="M20.32,20.59l1.09-1c.25,0,.48-.36.65-1.11l.46-.25.27.14c.6-.48.89-.79.91-1,.54-.53,1.28-1.17,2.22-1.94,0-.27-.05-.55-.07-.83L20.1,19.69Z"/><path class="cls-1" d="M24.39,19.23A9.8,9.8,0,0,0,22,21.39l-1.21,1,.18.71a13.08,13.08,0,0,1,3-1,12.91,12.91,0,0,1,2.4-.22h.07c-.09-1.12-.21-2.58-.35-4.22A14.17,14.17,0,0,0,24.39,19.23Z"/><path class="cls-1" d="M3.51,34.78l1.61.06c.15-.36.31-.72.48-1.11l-.1-.29a23.2,23.2,0,0,1,2-3.85l-.27.14v-.29l.9-1.27-.9-.69c-.21.05-.56.59-1.09,1.67l-.14,0,0-.28-.14,0,0,.14a1.85,1.85,0,0,1,.12.44,35.11,35.11,0,0,0-2.21,4.14H3.5l.06-.41,1.06-2.5c.26-.56.47-.82.61-.83l-.1-.26A19.52,19.52,0,0,1,6.55,27L2.88,24.13c-.71,1.2-2.58,4.89-1,8.4A7.2,7.2,0,0,0,3.51,34.78Z"/><path class="cls-1" d="M9.53,31.14a8.89,8.89,0,0,1,.61-.74l.38-.39-.17-.13a35.59,35.59,0,0,0-3,4.18c-.18.29-.34.57-.49.84l.57,0c.13-.31.26-.63.4-.93a18.41,18.41,0,0,1,1-1.82A9.21,9.21,0,0,1,9.53,31.14Z"/><path class="cls-1" d="M3.44,46.4A14.49,14.49,0,0,0,7.27,48,15.58,15.58,0,0,1,6.37,43,15.57,15.57,0,0,1,6.84,39l-2.35-.36a11.74,11.74,0,0,0-.58,1.75H3.62A.9.9,0,0,0,3.51,40a9.65,9.65,0,0,1,.27-1.4L0,38v0H0A9.78,9.78,0,0,0,3.44,46.4Z"/><path class="cls-1" d="M11.89,31.52a18.12,18.12,0,0,0-4,11.68,14.48,14.48,0,0,0,4.79,10.88,26.47,26.47,0,0,0,4.68,3.53,33.39,33.39,0,0,1,1.3-3.6q.23-.54.48-1.11l-.1-.3a24.12,24.12,0,0,1,2-3.85l-.27.14v-.28c.3-.43.6-.86.9-1.27.53-.72,1.05-1.41,1.56-2.08a7.52,7.52,0,0,1-.75-.74c-.53.63-1.09,1.34-1.68,2.12h0c-.21,0-.56.59-1.09,1.67l-.14,0,0-.28-.14,0,0,.14a1.85,1.85,0,0,1,.12.44,33.37,33.37,0,0,0-2.21,4.14H17l.06-.42,1.06-2.49c.26-.57.47-.82.62-.84l-.11-.26a21.4,21.4,0,0,1,1.42-2.58c.5-.8,1.09-1.64,1.76-2.53a4.25,4.25,0,0,1,.9-5.1c1.17-1.06,3-1.63,5.52-1.67l0-.08a.53.53,0,0,1,.08-.15.33.33,0,0,1,.24-.12l0,.28c.14,0,.46-.26.93-.79-.18,0-.28-.07-.26-.18,1.13-1.15,2.12-2.12,3-2.9,1.74-1.6,2.87-2.41,3.37-2.38A5.09,5.09,0,0,1,37.29,29a5.8,5.8,0,0,1,1.54-1.27l.14-.09.13,0-.17.26h.28l0-.14-.11-.26.15,0,.26.14c.19-.47.44-.74.68-.79-.43-.29-.88-.57-1.35-.83l-.17.15q-4.5,3.88-6.76,5.91c-1,.93-1.72,1.57-2.06,1.93a1,1,0,0,1-.58.09l-.1-.26a4.29,4.29,0,0,1,1.49-1.09l-.14-.27,0-.28a5.47,5.47,0,0,0,1.14-.94c.79-.72,2-1.86,3.58-3.44,1.05-.77,2-1.49,2.87-2.16-.32-.16-.64-.31-1-.45a20.73,20.73,0,0,0-8.27-1.77,21.4,21.4,0,0,0-9.65,2.19A21.92,21.92,0,0,0,11.89,31.52Z"/><path class="cls-1" d="M45.15,32.85c-.32.16-.67.33-1.06.49a1.21,1.21,0,0,1-.79,1.12v-.28l-.14,0a17.52,17.52,0,0,0-2.85,2.18,7.72,7.72,0,0,0-.69.47A14.17,14.17,0,0,0,37.9,38.4a8.21,8.21,0,0,0-2,1.67c.23.22.47.45.69.68a16.34,16.34,0,0,1,2.57,3.64c3.56-2.64,5.51-4.71,5.82-6.24A20.15,20.15,0,0,0,45.47,35,7.48,7.48,0,0,0,45.15,32.85Z"/><path class="cls-1" d="M34,38.54l.66.46.29-.28c.25,0,.48-.36.66-1.11l.46-.25.26.14c.6-.48.89-.79.91-1,.54-.52,1.28-1.17,2.22-1.93s2.22-1.75,3.68-2.81c.47-.4.84-.72,1.12-1a4,4,0,0,0-.22-.34l-.55.34,0-.14c.12-.12.25-.25.4-.38l-.21-.3,0,0-4.28,3.81Z"/><path class="cls-1" d="M40.93,56q-.06.15-.12.33l-.06.14c-.14.38-.31.81-.52,1.31h-.14l0-.14.19-.57,0-.14H40a32,32,0,0,1-1.69,3.29l-.49.85a36.44,36.44,0,0,1-3,4.18c-.55.68-1.14,1.39-1.78,2.12l-.62.69q-1.91,2.11-4.33,4.5c-.77.77-1.59,1.56-2.44,2.37l-.58.51-.36.32c-2.08,1.83-3.88,3.43-5.39,4.77l-2.83,2.51c-.31-.11-.63-.22-.93-.34l-.15-.06.16-.13c1.46-1.07,2.68-2,3.68-2.81S21,78.3,21.55,77.78c0-.17.31-.48.91-1l.26.14.46-.25c.18-.76.41-1.15.65-1.11l.3-.29.79-.75c1-1,2-1.93,2.86-2.87.55-.57,1.08-1.14,1.58-1.7l0-.14h0l-.12,0L29,70l-1.39,1.34-.24.24-.14,0a1.18,1.18,0,0,1,.25-.51,4.94,4.94,0,0,1,.57-.6l.29-.25L28.26,70a4.29,4.29,0,0,0,3.27-3.27v-.27c0-.92-.61-1.76-1.88-2.56a38.81,38.81,0,0,0-5.13-2.64c-1.95-.88-4-1.88-6.09-3L18,58l.05-.14.52-1.31.15,0,0,.14-.19.58,0,.13h.28a29.14,29.14,0,0,1,1.69-3.3c.15-.27.31-.55.49-.84a36.48,36.48,0,0,1,3-4.19c.55-.68,1.14-1.38,1.78-2.11a42.5,42.5,0,0,0,4.51,2.32,61.09,61.09,0,0,1,7.24,3.87A18.28,18.28,0,0,1,40.93,56Z"/><path class="cls-1" d="M28.1,70.07a3.32,3.32,0,0,0-.71.68l0,0-.05.12c-.17,0-.27-.07-.24-.28h-.14a16.86,16.86,0,0,1-2.46,2.16l-1.2,1c-.16.17-.3.33-.45.48a8.32,8.32,0,0,1-2,1.68,14.17,14.17,0,0,1-1.72,1.59,7.72,7.72,0,0,1-.69.47,17.72,17.72,0,0,1-2.86,2.17l-.14,0v-.28A1.22,1.22,0,0,0,14.67,81c-.39.16-.75.32-1.07.49l-.33.17a18.14,18.14,0,0,1-4.29-3,13.33,13.33,0,0,1-2.86-3.69.14.14,0,0,1,.12,0c0-.07-.08-.19-.26-.43l-.09,0a10.13,10.13,0,0,1-.52-1.39,8.83,8.83,0,0,1-.3-2.14,7.35,7.35,0,0,1,.36-2.18A21.29,21.29,0,0,0,7.5,67c-.68.32-1.27.62-1.78.91a12.34,12.34,0,0,1,.57-1.24c.68-.39,1-.74,1-1l.2.1a4.32,4.32,0,0,1,1.88-1.18h.2v.1a2.81,2.81,0,0,0-1.29.88h.2c1.92-1.07,3.45-2,4.61-2.66a9.46,9.46,0,0,0,2,3.25,14.58,14.58,0,0,0,4.41,3.25,10.06,10.06,0,0,0,4.44,1.19A14.76,14.76,0,0,0,28.1,70.07Z"/><path class="cls-1" d="M41.43,56.7a31.06,31.06,0,0,1-1.31,3.61c-.14.35-.3.72-.47,1.1l.1.3a24.18,24.18,0,0,1-2,3.85l.26-.14v.28c-.3.44-.61.86-.91,1.27-.52.73-1,1.42-1.56,2.08-.34.44-.68.88-1,1.3-1.21,1.48-2.4,2.82-3.56,4l.1.29-1.34,1.43L28.9,77l0,.14c.14,0,.34-.16.61-.55.07,0,.18-.06.35-.21s.42-.4.74-.73a4,4,0,0,1,1.21-1.1c0,.21.07.29.24.32,0-.28.13-.44.31-.42h.14v.28l.13,0c0-.18.12-.34.33-.56-.1,0-.13,0-.12-.16.19-.07.3-.13.41-.11l-.1-.3,0-.14c.28,0,.62-.41,1-1.24.35-.32.71-.69,1.09-1.1s.73-.81,1.12-1.28c.53-.64,1.09-1.34,1.68-2.12h0c.22,0,.57-.59,1.1-1.67l.14,0,0,.28.14,0,0-.14a1.85,1.85,0,0,1-.12-.44,36.81,36.81,0,0,0,2.21-4.14h.28l-.06.42-1.06,2.5c-.25.56-.47.82-.61.83l.11.26A20.74,20.74,0,0,1,38.7,68.2c-.5.79-1.09,1.64-1.76,2.52-.31.41-.63.82-1,1.24-1,1.25-2.16,2.58-3.46,4l-.61.55-.14,0,0-.42c.28,0,.43-.08.42-.25l0-.14c-.1,0-.51.35-1.21,1.06l.42,0V77a.34.34,0,0,1-.33.27h-.28l0-.42c-.07,0-.2.14-.45.39l.1.23,0,.07a1,1,0,0,1-.08.15.31.31,0,0,1-.24.13l0-.28c-.13,0-.46.25-.92.79.17,0,.27.07.26.17-1.14,1.16-2.12,2.12-3,2.9-1.74,1.61-2.86,2.41-3.36,2.39l-.4.45,1,0,.69,0c.9-.78,1.68-1.47,2.31-2,1-.92,1.72-1.57,2.06-1.93a1.15,1.15,0,0,1,.58-.09l.1.26a4.27,4.27,0,0,1-1.5,1.1l.14.26,0,.28a6.43,6.43,0,0,0-1.13.94c-.34.31-.74.69-1.22,1.15a20.59,20.59,0,0,0,2.88-.43c1-.7,3.19-2,6.63-4h.2a2.83,2.83,0,0,1-1.28.88v.1h.19a4.26,4.26,0,0,0,1.88-1.18l.2.1c0-.42.61-.92,1.87-1.48,0-.13.1-.2.3-.2v-.1h-.1l-.49.3h-.2L39.67,77c.27-.31.52-.63.77-1a1.62,1.62,0,0,1-.57.22,16.33,16.33,0,0,1-3.55,2.08,36.66,36.66,0,0,1,5.2-3.87,19.2,19.2,0,0,0,2.68-7.18,21.73,21.73,0,0,0,.2-2.68,12.1,12.1,0,0,0-2.94-8Z"/></g></g>
        </svg>
    </symbol>

    <symbol id="youtube" viewBox="0 0 461.001 461.001">
        <title> youtube Icon </title>
        <svg x="0px" y="0px" viewBox="0 0 461.001 461.001" style="enable-background:new 0 0 461.001 461.001;"
            xml:space="preserve">
            <g>
                <path d="M365.257,67.393H95.744C42.866,67.393,0,110.259,0,163.137v134.728
		c0,52.878,42.866,95.744,95.744,95.744h269.513c52.878,0,95.744-42.866,95.744-95.744V163.137
		C461.001,110.259,418.135,67.393,365.257,67.393z M300.506,237.056l-126.06,60.123c-3.359,1.602-7.239-0.847-7.239-4.568V168.607
		c0-3.774,3.982-6.22,7.348-4.514l126.06,63.881C304.363,229.873,304.298,235.248,300.506,237.056z" />
            </g>
            <g>
            </g>
            <g>
            </g>
            <g>
            </g>
            <g>
            </g>
            <g>
            </g>
            <g>
            </g>
            <g>
            </g>
            <g>
            </g>
            <g>
            </g>
            <g>
            </g>
            <g>
            </g>
            <g>
            </g>
            <g>
            </g>
            <g>
            </g>
            <g>
            </g>
        </svg>

    </symbol>

    <symbol id="twitter" viewBox="0 0 310 310">
        <title> twitter Icon </title>
        <svg x="0px" y="0px" viewBox="0 0 310 310">
            <g id="XMLID_826_">
                <path id="XMLID_827_" d="M302.973,57.388c-4.87,2.16-9.877,3.983-14.993,5.463c6.057-6.85,10.675-14.91,13.494-23.73
		c0.632-1.977-0.023-4.141-1.648-5.434c-1.623-1.294-3.878-1.449-5.665-0.39c-10.865,6.444-22.587,11.075-34.878,13.783
		c-12.381-12.098-29.197-18.983-46.581-18.983c-36.695,0-66.549,29.853-66.549,66.547c0,2.89,0.183,5.764,0.545,8.598
		C101.163,99.244,58.83,76.863,29.76,41.204c-1.036-1.271-2.632-1.956-4.266-1.825c-1.635,0.128-3.104,1.05-3.93,2.467
		c-5.896,10.117-9.013,21.688-9.013,33.461c0,16.035,5.725,31.249,15.838,43.137c-3.075-1.065-6.059-2.396-8.907-3.977
		c-1.529-0.851-3.395-0.838-4.914,0.033c-1.52,0.871-2.473,2.473-2.513,4.224c-0.007,0.295-0.007,0.59-0.007,0.889
		c0,23.935,12.882,45.484,32.577,57.229c-1.692-0.169-3.383-0.414-5.063-0.735c-1.732-0.331-3.513,0.276-4.681,1.597
		c-1.17,1.32-1.557,3.16-1.018,4.84c7.29,22.76,26.059,39.501,48.749,44.605c-18.819,11.787-40.34,17.961-62.932,17.961
		c-4.714,0-9.455-0.277-14.095-0.826c-2.305-0.274-4.509,1.087-5.294,3.279c-0.785,2.193,0.047,4.638,2.008,5.895
		c29.023,18.609,62.582,28.445,97.047,28.445c67.754,0,110.139-31.95,133.764-58.753c29.46-33.421,46.356-77.658,46.356-121.367
		c0-1.826-0.028-3.67-0.084-5.508c11.623-8.757,21.63-19.355,29.773-31.536c1.237-1.85,1.103-4.295-0.33-5.998
		C307.394,57.037,305.009,56.486,302.973,57.388z" />
            </g>
            <g>
            </g>
            <g>
            </g>
            <g>
            </g>
            <g>
            </g>
            <g>
            </g>
            <g>
            </g>
            <g>
            </g>
            <g>
            </g>
            <g>
            </g>
            <g>
            </g>
            <g>
            </g>
            <g>
            </g>
            <g>
            </g>
            <g>
            </g>
            <g>
            </g>
        </svg>

    </symbol>

    <symbol id="twitch" viewBox="0 0 268 268">
        <title> twitch Icon </title>
        <svg width="268px" height="268px" viewBox="-6 0 268 268">
            <g>
                <path
                    d="M17.4579119,0 L0,46.5559188 L0,232.757287 L63.9826001,232.757287 L63.9826001,267.690956 L98.9144853,267.690956 L133.811571,232.757287 L186.171922,232.757287 L256,162.954193 L256,0 L17.4579119,0 Z M40.7166868,23.2632364 L232.73141,23.2632364 L232.73141,151.29179 L191.992415,192.033461 L128,192.033461 L93.11273,226.918947 L93.11273,192.033461 L40.7166868,192.033461 L40.7166868,23.2632364 Z M104.724985,139.668381 L127.999822,139.668381 L127.999822,69.843872 L104.724985,69.843872 L104.724985,139.668381 Z M168.721862,139.668381 L191.992237,139.668381 L191.992237,69.843872 L168.721862,69.843872 L168.721862,139.668381 Z"
                    ></path>
            </g>
        </svg>
    </symbol>

    <symbol id="whatsapp" viewBox="0 0 418.135 418.135">
        <title> whatsapp Icon </title>
        <svg x="0px" y="0px" viewBox="0 0 418.135 418.135" style="enable-background:new 0 0 418.135 418.135;"
            xml:space="preserve">
            <g>
                <path  d="M198.929,0.242C88.5,5.5,1.356,97.466,1.691,208.02c0.102,33.672,8.231,65.454,22.571,93.536
		L2.245,408.429c-1.191,5.781,4.023,10.843,9.766,9.483l104.723-24.811c26.905,13.402,57.125,21.143,89.108,21.631
		c112.869,1.724,206.982-87.897,210.5-200.724C420.113,93.065,320.295-5.538,198.929,0.242z M323.886,322.197
		c-30.669,30.669-71.446,47.559-114.818,47.559c-25.396,0-49.71-5.698-72.269-16.935l-14.584-7.265l-64.206,15.212l13.515-65.607
		l-7.185-14.07c-11.711-22.935-17.649-47.736-17.649-73.713c0-43.373,16.89-84.149,47.559-114.819
		c30.395-30.395,71.837-47.56,114.822-47.56C252.443,45,293.218,61.89,323.887,92.558c30.669,30.669,47.559,71.445,47.56,114.817
		C371.446,250.361,354.281,291.803,323.886,322.197z" />
                <path d="M309.712,252.351l-40.169-11.534c-5.281-1.516-10.968-0.018-14.816,3.903l-9.823,10.008
		c-4.142,4.22-10.427,5.576-15.909,3.358c-19.002-7.69-58.974-43.23-69.182-61.007c-2.945-5.128-2.458-11.539,1.158-16.218
		l8.576-11.095c3.36-4.347,4.069-10.185,1.847-15.21l-16.9-38.223c-4.048-9.155-15.747-11.82-23.39-5.356
		c-11.211,9.482-24.513,23.891-26.13,39.854c-2.851,28.144,9.219,63.622,54.862,106.222c52.73,49.215,94.956,55.717,122.449,49.057
		c15.594-3.777,28.056-18.919,35.921-31.317C323.568,266.34,319.334,255.114,309.712,252.351z" />
            </g>
            <g>
            </g>
            <g>
            </g>
            <g>
            </g>
            <g>
            </g>
            <g>
            </g>
            <g>
            </g>
            <g>
            </g>
            <g>
            </g>
            <g>
            </g>
            <g>
            </g>
            <g>
            </g>
            <g>
            </g>
            <g>
            </g>
            <g>
            </g>
            <g>
            </g>
        </svg>

    </symbol>

    <symbol id="steam" viewBox="0 0 28 28">
        <title> steam Icon </title>
        <svg width="28px" height="28px" viewBox="0 -2 28 28">
            <path
                d="m24.72 7.094c0 2.105-1.707 3.812-3.812 3.812-1.053 0-2.006-.427-2.696-1.117-.74-.697-1.201-1.684-1.201-2.778 0-2.105 1.707-3.812 3.812-3.812 1.094 0 2.08.461 2.776 1.199l.002.002c.691.669 1.12 1.605 1.12 2.641v.055-.003zm-12.033 11.593c0-.004 0-.008 0-.012 0-2.151-1.744-3.894-3.894-3.894-.004 0-.008 0-.013 0h.001c-.299 0-.59.034-.87.099l.026-.005 1.625.656c.778.303 1.387.897 1.704 1.644l.007.02c.164.356.26.772.26 1.21 0 .418-.087.816-.244 1.176l.007-.019c-.304.778-.901 1.386-1.652 1.696l-.02.007c-.355.161-.77.254-1.206.254-.422 0-.824-.088-1.188-.246l.019.007q-.328-.125-.969-.383l-.953-.383c.337.627.82 1.138 1.405 1.498l.017.01c.568.358 1.258.571 1.999.571h.034-.002.012c2.151 0 3.894-1.744 3.894-3.894 0-.004 0-.008 0-.013v.001zm12.969-11.577c-.005-2.63-2.136-4.761-4.765-4.766-2.631.002-4.763 2.135-4.763 4.766s2.134 4.766 4.766 4.766c1.313 0 2.503-.531 3.364-1.391.863-.834 1.399-2.003 1.399-3.296 0-.028 0-.056-.001-.083zm2.344 0v.001c0 3.926-3.183 7.109-7.109 7.109h-.001l-6.828 4.981c-.116 1.361-.749 2.556-1.698 3.402l-.005.004c-.914.863-2.151 1.394-3.512 1.394-.023 0-.046 0-.069 0h.004c-2.534-.002-4.652-1.777-5.181-4.152l-.007-.035-3.594-1.438v-6.703l6.08 2.453c.758-.471 1.679-.75 2.664-.75h.041-.002q.203 0 .547.031l4.438-6.359c.05-3.898 3.218-7.04 7.122-7.047h.001c3.924.006 7.104 3.185 7.11 7.109v.001z" />
        </svg>
    </symbol>

    <symbol id="discord" viewBox="0 0 24 24">
        <title> discord Icon </title>
       <svg width="24px" height="24px" viewBox="0 0 24 24" xmlns="http://www.w3.org/2000/svg" xml:space="preserve"><path d="M18.942 5.556a16.299 16.299 0 0 0-4.126-1.297c-.178.321-.385.754-.529 1.097a15.175 15.175 0 0 0-4.573 0 11.583 11.583 0 0 0-.535-1.097 16.274 16.274 0 0 0-4.129 1.3c-2.611 3.946-3.319 7.794-2.965 11.587a16.494 16.494 0 0 0 5.061 2.593 12.65 12.65 0 0 0 1.084-1.785 10.689 10.689 0 0 1-1.707-.831c.143-.106.283-.217.418-.331 3.291 1.539 6.866 1.539 10.118 0 .137.114.277.225.418.331-.541.326-1.114.606-1.71.832a12.52 12.52 0 0 0 1.084 1.785 16.46 16.46 0 0 0 5.064-2.595c.415-4.396-.709-8.209-2.973-11.589zM8.678 14.813c-.988 0-1.798-.922-1.798-2.045s.793-2.047 1.798-2.047 1.815.922 1.798 2.047c.001 1.123-.793 2.045-1.798 2.045zm6.644 0c-.988 0-1.798-.922-1.798-2.045s.793-2.047 1.798-2.047 1.815.922 1.798 2.047c0 1.123-.793 2.045-1.798 2.045z"/></svg>
    </symbol>


</svg>