<svg width="23" height="23" viewBox="0 0 23 23" fill="none" xmlns="http://www.w3.org/2000/svg">
<rect x="1" width="22" height="23" fill="white"/>
<path d="M15.9701 10.523H17.4125V16.7267C17.4125 17.1054 17.1054 17.4125 16.7267 17.4125H6.2733C5.89456 17.4125 5.58748 17.1054 5.58748 16.7267V10.523H7.02993C6.96141 10.8379 6.92425 11.1645 6.92425 11.5C6.92425 14.0271 8.97283 16.0757 11.5 16.0757C14.0271 16.0757 16.0757 14.0271 16.0757 11.5C16.0757 11.1645 16.0386 10.8378 15.9701 10.523ZM11.5 14.5821C13.2021 14.5821 14.582 13.2022 14.582 11.5C14.582 9.79789 13.2021 8.41799 11.5 8.41799C9.7978 8.41799 8.41789 9.79789 8.41789 11.5C8.41789 13.2022 9.7978 14.5821 11.5 14.5821ZM15.1926 8.33468H16.3664C16.7106 8.33468 16.9896 8.05564 16.9896 7.7115V6.53774C16.9896 6.19359 16.7107 5.91466 16.3664 5.91466H15.1926C14.8484 5.91466 14.5695 6.19359 14.5695 6.53774V7.71159C14.5695 8.05574 14.8484 8.33468 15.1926 8.33468ZM23 0V23H0V0H23ZM18.8255 6.02223C18.8255 5.00183 17.9983 4.17459 16.9779 4.17459H6.02223C5.00183 4.17459 4.17459 5.00183 4.17459 6.02223V16.9779C4.17459 17.9983 5.00183 18.8255 6.02223 18.8255H16.9779C17.9983 18.8255 18.8255 17.9983 18.8255 16.9779V6.02223V6.02223Z" fill="#575757"/>
</svg>
