<svg width="23" height="23" viewBox="0 0 23 23" fill="none" xmlns="http://www.w3.org/2000/svg">
<rect width="22" height="23" fill="white"/>
<path fill-rule="evenodd" clip-rule="evenodd" d="M12.4554 10.33V10.2964C12.4486 10.3077 12.4391 10.3189 12.4331 10.33H12.4554Z" fill="#575757"/>
<path fill-rule="evenodd" clip-rule="evenodd" d="M0 0V23H23V0H0ZM7.15386 19.1078H3.74147V8.8414H7.15386V19.1078ZM5.44766 7.44017H5.42512C4.28043 7.44017 3.53846 6.65155 3.53846 5.66584C3.53846 4.65849 4.30211 3.89221 5.47001 3.89221C6.63815 3.89221 7.35601 4.65849 7.37835 5.66584C7.37835 6.65155 6.63815 7.44017 5.44766 7.44017ZM19.4615 19.1078H16.0482V13.6152C16.0482 12.2357 15.5551 11.294 14.3197 11.294C13.3762 11.294 12.8156 11.9281 12.5686 12.5422C12.4788 12.7616 12.4554 13.0666 12.4554 13.3742V19.1078H9.04143C9.04143 19.1078 9.08717 9.80457 9.04143 8.84145H12.4554V10.2962C12.909 9.59828 13.7184 8.60043 15.5316 8.60043C17.7779 8.60043 19.4615 10.0674 19.4615 13.2206V19.1078Z" fill="#575757"/>
</svg>
