<svg width="23" height="23" viewBox="0 0 23 23" fill="none" xmlns="http://www.w3.org/2000/svg">
<rect width="23" height="23" fill="#575757"/>
<path d="M4.15241 9.98835C4.12745 10.1104 4.1054 10.2336 4.08645 10.3576C4.06753 10.4818 4.05156 10.6069 4.03874 10.7331C4.01313 10.9852 4 11.2409 4 11.4999C4 11.7588 4.01313 12.0146 4.03874 12.2667C4.05156 12.3928 4.06745 12.518 4.08645 12.6421C4.10538 12.7662 4.12745 12.8894 4.15241 13.0114C4.17736 13.1334 4.20536 13.2544 4.23613 13.3742C4.29784 13.6138 4.37097 13.8489 4.45512 14.0786C4.49717 14.1934 4.54199 14.3071 4.58941 14.4192C4.63681 14.5313 4.68695 14.6421 4.73956 14.7514C4.76588 14.806 4.79291 14.8603 4.82051 14.9143C4.87569 15.022 4.93344 15.1283 4.99368 15.233C5.17431 15.5471 5.37702 15.8469 5.59968 16.1303C5.71104 16.2719 5.82732 16.4095 5.94838 16.5427C6.02909 16.6316 6.11184 16.7184 6.19672 16.8032C6.28152 16.8881 6.36839 16.9709 6.45718 17.0516C6.85673 17.4147 7.29565 17.7353 7.76681 18.0063C7.87151 18.0664 7.97778 18.1243 8.08559 18.1795C8.3012 18.2899 8.52283 18.3901 8.74992 18.4797C8.86343 18.5245 8.97837 18.5666 9.09453 18.6059C9.84958 18.8615 10.6586 19 11.5 19C12.0736 19 12.632 18.9353 13.1687 18.8134C13.4192 18.7565 13.6651 18.6873 13.9054 18.606C14.0216 18.5667 14.1364 18.5246 14.25 18.4798C14.4771 18.3904 14.6987 18.29 14.9143 18.1795C15.0221 18.1243 15.1284 18.0666 15.2331 18.0064C15.7043 17.7355 16.1432 17.4148 16.5427 17.0517C16.6316 16.9709 16.7184 16.8881 16.8032 16.8033C16.888 16.7185 16.9709 16.6316 17.0516 16.5428C17.1726 16.4097 17.2889 16.2721 17.4002 16.1304C17.5764 15.9062 17.7396 15.6717 17.8898 15.4281C17.9294 15.3636 17.9685 15.2988 18.0063 15.2331C18.0665 15.1284 18.1243 15.0221 18.1795 14.9143C18.2071 14.8604 18.234 14.8061 18.2604 14.7515C18.3131 14.6422 18.3631 14.5314 18.4105 14.4193C18.458 14.3071 18.5028 14.1935 18.5448 14.0787C18.6289 13.8489 18.7021 13.6139 18.7638 13.3743C18.7946 13.2545 18.8226 13.1335 18.8476 13.0115C18.8725 12.8894 18.8946 12.7663 18.9135 12.6422C18.9324 12.518 18.9484 12.3929 18.9612 12.2668C18.9868 12.0147 19 11.7589 19 11.5C19 11.241 18.9868 10.9852 18.9612 10.7331C18.9484 10.607 18.9325 10.4819 18.9135 10.3577C18.8946 10.2336 18.8725 10.1104 18.8476 9.98843C18.8226 9.86643 18.7946 9.74538 18.7638 9.62563C18.7021 9.38604 18.6289 9.15101 18.5448 8.92127C18.5238 8.86384 18.5021 8.80672 18.4797 8.74991C18.4126 8.57963 18.3393 8.41239 18.2603 8.24842C18.234 8.19379 18.207 8.1395 18.1794 8.08558C18.1242 7.97779 18.0664 7.87149 18.0062 7.76682C17.8256 7.4527 17.6229 7.15295 17.4002 6.86956C17.2889 6.7279 17.1726 6.59033 17.0515 6.45711C16.9708 6.36832 16.888 6.28145 16.8032 6.19665C16.7184 6.11177 16.6315 6.02899 16.5427 5.9483C16.3707 5.79197 16.1913 5.64373 16.0053 5.50377C15.7592 5.31857 15.5014 5.14795 15.2331 4.99363C15.1284 4.93347 15.0221 4.87564 14.9143 4.82046C14.8653 4.79535 14.8158 4.77089 14.7662 4.74691C14.7067 4.7181 14.6468 4.68979 14.5864 4.66252C14.5611 4.65112 14.5356 4.64029 14.5102 4.62915C14.4242 4.59138 14.3377 4.55481 14.25 4.52024L14.2463 4.51879C14.1529 4.48207 14.0583 4.44749 13.963 4.41436C13.9438 4.4077 13.9247 4.40057 13.9053 4.39407C13.6832 4.31892 13.4564 4.25417 13.2256 4.19988C13.1534 4.18287 13.081 4.16667 13.0081 4.15175C12.9555 4.141 12.9028 4.13104 12.8498 4.12142C12.4553 4.0497 12.0501 4.00912 11.6367 4.00173C11.5911 4.00089 11.5456 4 11.4998 4C11.4221 4 11.3447 4.0016 11.2675 4.00393C10.5095 4.02703 9.77962 4.16221 9.09434 4.3941C8.97819 4.43342 8.86327 4.47552 8.74974 4.52026C8.71461 4.53413 8.67996 4.54865 8.64507 4.56302C8.56716 4.5951 8.48978 4.628 8.41324 4.66255C8.30246 4.7127 8.1932 4.76531 8.08541 4.82057C7.97759 4.87575 7.87132 4.93352 7.76663 4.99373C7.34543 5.23597 6.95005 5.51793 6.58539 5.83446C6.54216 5.872 6.49933 5.90985 6.45697 5.94838C6.36816 6.02907 6.28129 6.11193 6.19651 6.19673C6.11174 6.28153 6.02885 6.36838 5.94817 6.45719C5.82711 6.59035 5.7108 6.72792 5.59947 6.86963C5.37679 7.15295 5.17408 7.45281 4.99344 7.7669C4.9332 7.87157 4.87545 7.97787 4.82027 8.08566C4.79267 8.13958 4.76572 8.19387 4.73935 8.2485C4.66035 8.41247 4.58718 8.57971 4.51997 8.74999C4.49759 8.8068 4.47585 8.86389 4.45483 8.92132C4.37069 9.15106 4.29755 9.38607 4.23584 9.62568C4.20533 9.7453 4.17736 9.86635 4.15241 9.98835ZM10.229 4.51512C10.2437 4.54 10.256 4.56871 10.2919 4.57961C10.3621 4.54325 10.4321 4.58202 10.5094 4.57961C10.5847 4.57696 10.652 4.54247 10.735 4.55547C10.8818 4.5784 11.0867 4.72185 11.2023 4.64402C11.2314 4.62436 11.2245 4.59044 11.2507 4.53942C11.2717 4.49866 11.3043 4.45352 11.3244 4.4033C11.3828 4.40186 11.4412 4.40104 11.5 4.40104C11.985 4.40104 12.4589 4.45006 12.9169 4.54317C12.8977 4.59371 12.8346 4.57117 12.7818 4.59563C12.7321 4.61864 12.7136 4.66614 12.6609 4.67608C12.5143 4.70368 12.3929 4.63935 12.2661 4.64399C12.2601 4.69886 12.3288 4.73078 12.3628 4.74843C12.4777 4.80866 12.5713 4.80041 12.7333 4.79679C12.8164 4.79496 12.9118 4.82159 12.9832 4.77257C13.0284 4.74169 13.026 4.67366 13.0638 4.63589C13.0799 4.61993 13.1036 4.60388 13.1303 4.59025C13.2099 4.60902 13.2889 4.62939 13.3675 4.65081C13.3543 4.70504 13.2665 4.69196 13.2653 4.76463C13.3214 4.79823 13.4517 4.74625 13.5021 4.68889C13.5216 4.69466 13.5412 4.70045 13.5606 4.7063C13.6746 4.74096 13.7873 4.77834 13.8988 4.81844C14.0578 4.87572 14.2141 4.93853 14.3676 5.00655C14.3381 5.02396 14.3066 5.04627 14.2807 5.04611C14.2141 5.04569 14.1857 4.95675 14.1114 4.98964C14.1049 5.07578 14.2026 5.11067 14.2645 5.15046C14.3314 5.19353 14.4018 5.23645 14.4256 5.31136C14.36 5.4503 14.2555 5.30408 14.1517 5.30342C14.0373 5.30261 13.8704 5.52073 13.773 5.34361C13.7972 5.24974 13.9008 5.23516 13.9261 5.1425C13.9038 5.14627 13.8823 5.15348 13.8609 5.16208C13.8226 5.17723 13.7849 5.19768 13.7458 5.2187C13.6945 5.2463 13.6406 5.27372 13.5795 5.28735C13.5234 5.29973 13.4686 5.29674 13.4184 5.31134C13.322 5.33957 13.2546 5.41066 13.1526 5.44828C13.1127 5.46288 13.0651 5.45837 13.0236 5.47226C12.9263 5.50474 12.8098 5.56283 12.7094 5.61712C12.6068 5.67254 12.4911 5.73078 12.4274 5.78604C12.393 5.81571 12.3035 5.92128 12.3066 5.9548C12.3106 6.0027 12.401 6.01858 12.4032 6.0675C12.4012 6.09717 12.3509 6.16118 12.3872 6.20425C12.4201 6.2435 12.4862 6.21172 12.5563 6.2203C12.6794 6.23555 12.7599 6.3371 12.8544 6.38922C12.9258 6.42862 13.0319 6.47554 13.1125 6.48574C13.2232 6.4996 13.3471 6.45349 13.3622 6.54204C13.3768 6.62716 13.258 6.65754 13.2494 6.71096C13.3091 6.78958 13.2089 6.82712 13.2092 6.89603C13.2095 6.95184 13.2779 7.03559 13.338 7.04065C13.4192 7.04755 13.5381 6.96083 13.5718 6.87983C13.6119 6.78334 13.5949 6.65251 13.6685 6.58223C14.044 6.59258 14.3616 6.412 14.3374 6.02731C14.335 5.9893 14.3134 5.94036 14.3214 5.89858C14.3332 5.8364 14.4402 5.78421 14.426 5.70559C14.4665 5.69314 14.4907 5.66042 14.5114 5.62362C14.5423 5.56876 14.5663 5.50611 14.6237 5.48542C14.6278 5.4839 14.6311 5.48133 14.6355 5.48036C14.6684 5.473 14.7028 5.4795 14.7389 5.49017C14.8032 5.50917 14.873 5.54191 14.9497 5.5367C14.9888 5.53405 15.0395 5.49908 15.0788 5.50461C15.1575 5.51559 15.2049 5.61251 15.2641 5.65744C15.3164 5.69736 15.3716 5.68462 15.385 5.73781C15.3695 5.82709 15.3073 5.83045 15.3124 5.91244L15.3123 5.91478C15.3183 5.98849 15.3949 6.0444 15.4332 6.05169C15.4919 6.06267 15.576 6.03116 15.6347 6.00333C15.698 5.97342 15.7558 5.90877 15.8111 5.86384C15.8901 5.92442 15.9678 5.9865 16.0442 6.05017C16.0529 6.08595 16.059 6.11819 16.0618 6.14C16.0731 6.22695 16.05 6.29338 16.0539 6.37344C16.0642 6.50907 16.2354 6.49528 16.3196 6.56634C16.345 6.58792 16.355 6.64294 16.3762 6.67093C16.4171 6.72541 16.4665 6.72541 16.4728 6.78347C16.4879 6.9224 16.3467 6.93412 16.3599 7.08917C16.3308 7.14926 16.2573 7.14564 16.2632 7.22585C16.2726 7.35283 16.4553 7.25553 16.505 7.35459C16.5318 7.40785 16.5005 7.44746 16.4807 7.52335C16.5433 7.59769 16.5428 7.71634 16.4326 7.71649C16.3655 7.71649 16.3471 7.64461 16.2793 7.62794C16.2417 7.61856 16.1904 7.62039 16.1424 7.6119C16.1014 7.60461 16.0525 7.59242 16.0136 7.58776C15.9141 7.57596 15.8064 7.60485 15.7476 7.54757C15.8435 7.42044 15.9709 7.29513 16.0941 7.18564C16.1308 7.1529 16.2095 7.13054 16.1908 7.065C16.1222 7.00484 16.038 7.0687 15.9733 7.10519C15.9053 7.14338 15.8243 7.19841 15.7476 7.20978C15.6143 7.22952 15.4376 7.1708 15.3287 7.24187C15.3136 7.30258 15.4526 7.27901 15.4333 7.37063C15.38 7.37936 15.3295 7.38363 15.2884 7.34641C15.2509 7.31272 15.2724 7.26211 15.2481 7.24182C15.2069 7.20763 15.0515 7.19833 14.9822 7.20973C14.8975 7.22352 14.8226 7.27414 14.8129 7.34641C14.9145 7.39396 15.0823 7.29747 15.1191 7.41892C15.0634 7.51903 14.9322 7.57413 14.9498 7.70834C14.9567 7.76016 15.0184 7.82939 15.0627 7.8371C15.1073 7.84478 15.1323 7.80066 15.1754 7.80478C15.221 7.80903 15.2106 7.86101 15.2641 7.85314C15.3417 7.82009 15.3846 7.71141 15.4735 7.71647C15.5801 7.8457 15.3772 7.90866 15.2641 7.94966C15.1352 7.99635 14.9675 8.02115 14.8692 8.06243C14.8177 8.08393 14.6228 8.27204 14.5953 8.12661C14.5755 8.02175 14.6917 8.05208 14.7161 7.96578C14.5914 7.94156 14.4752 8.01937 14.3617 8.06251C14.1997 8.12364 13.9252 8.16239 13.8861 8.34399C13.8784 8.38033 13.902 8.44835 13.8782 8.47257C13.8588 8.49205 13.7433 8.49559 13.6928 8.51276C13.6151 8.53939 13.5473 8.59628 13.4992 8.60925C13.463 8.61921 13.4095 8.61638 13.3865 8.62556C13.3225 8.65033 13.2988 8.73681 13.2254 8.79432C13.1953 8.81781 13.1285 8.8349 13.1045 8.85865C13.0628 8.90012 13.0573 9.00392 12.9836 9.01947C12.9369 9.02356 12.8988 8.98434 12.8547 9.01137C12.8494 9.11397 12.8909 9.25353 12.8467 9.35726C12.7512 9.4349 12.6465 9.48985 12.5244 9.55834C12.4569 9.59638 12.3964 9.60608 12.3148 9.64689C12.257 9.6757 12.2041 9.74435 12.1375 9.78357C11.9837 9.87395 11.7979 9.98096 11.7991 10.2099C11.7994 10.2595 11.825 10.3129 11.8313 10.3708C11.8352 10.4049 11.8272 10.4382 11.8313 10.4754C11.8408 10.5595 11.9019 10.6666 11.8313 10.7246C11.7228 10.6802 11.5849 10.6651 11.509 10.588C11.4882 10.5086 11.551 10.4431 11.5414 10.3708C11.5336 10.3127 11.4518 10.2093 11.4042 10.2018C11.3552 10.1941 11.3099 10.2461 11.2593 10.242C11.1991 10.2372 11.1431 10.1545 11.0658 10.1455C10.9524 10.1323 10.869 10.1713 10.7435 10.1537C10.6219 10.2185 10.5864 10.3338 10.4374 10.3224C10.385 10.3186 10.3369 10.2786 10.2763 10.2661C10.2106 10.2526 10.1109 10.2294 10.0425 10.2341C9.90531 10.2433 9.80586 10.3418 9.68803 10.4029C9.58406 10.4569 9.43687 10.5242 9.406 10.6362C9.38906 10.6965 9.40335 10.7815 9.38177 10.8373C9.36751 10.8741 9.33637 10.9068 9.31729 10.9417C9.22696 11.1064 9.15204 11.3242 9.22061 11.5612C9.23081 11.5963 9.32057 11.7946 9.35755 11.8346C9.3991 11.8791 9.52136 11.9459 9.59114 11.9472C9.65017 11.9483 9.71933 11.9172 9.77652 11.907C9.84284 11.8952 9.92589 11.8941 9.98613 11.8749C10.1603 11.8192 10.1259 11.584 10.3003 11.5048C10.3764 11.4704 10.4645 11.4635 10.5984 11.4566C10.6409 11.4923 10.6609 11.555 10.6549 11.6094C10.6505 11.6504 10.6114 11.6876 10.5905 11.7462C10.5722 11.7975 10.5683 11.8576 10.5502 11.899C10.5262 11.9532 10.4727 11.9929 10.4535 12.0439C10.4409 12.077 10.4478 12.1183 10.4375 12.1483C10.4189 12.2012 10.348 12.2386 10.3809 12.2931C10.5535 12.3616 10.7623 12.2736 10.9128 12.3013C10.9764 12.3128 11.1073 12.3885 11.1062 12.4863C11.1054 12.5594 11.0496 12.6073 11.0417 12.6874C11.0319 12.7881 10.9898 12.9115 10.9853 12.993C10.9782 13.1264 11.1814 13.3567 11.3237 13.3549C11.4769 13.3529 11.5663 13.2028 11.7508 13.2826C11.8121 13.309 11.8768 13.4081 11.9444 13.4032C12.0002 13.3992 12.0844 13.3017 12.1217 13.2342C12.1671 13.152 12.1703 13.0827 12.2505 13.0413C12.337 12.9966 12.4058 13.0181 12.5165 12.9769C12.5659 12.9586 12.6089 12.9271 12.6534 12.8964C12.6925 12.8696 12.7336 12.7994 12.7824 12.8481C12.8467 12.9122 12.7036 12.9484 12.7582 13.0171C12.8699 13.0761 12.9271 12.9071 13.0081 12.9046C13.0338 12.9038 13.1232 12.9547 13.1692 12.9849C13.232 13.0261 13.2534 13.0841 13.3222 13.0975C13.3663 13.1062 13.4374 13.0806 13.4995 13.0894C13.5817 13.1011 13.6307 13.1716 13.693 13.1697C13.7689 13.1678 13.8054 13.0853 13.8703 13.0732C14.0126 13.0472 14.0655 13.0891 14.1281 13.1778C14.1983 13.19 14.2008 13.0968 14.2651 13.1297C14.2299 13.1998 14.2771 13.232 14.3053 13.2905C14.3236 13.328 14.3206 13.3547 14.3377 13.371C14.3761 13.4076 14.4504 13.4076 14.5067 13.4432C14.5662 13.4806 14.5997 13.5501 14.6679 13.6283C14.7381 13.7084 14.8562 13.7912 14.9499 13.7971C15.0385 13.8028 15.1105 13.7721 15.1837 13.7811C15.3504 13.8015 15.454 13.8846 15.5706 13.9742C15.6358 14.0242 15.6945 14.0589 15.7155 14.1188C15.7302 14.1606 15.723 14.2167 15.7397 14.2636C15.7753 14.3638 15.9216 14.4122 15.8687 14.5853C15.8929 14.6361 15.9472 14.6544 16.0056 14.6899C16.0524 14.7183 16.0919 14.7783 16.1425 14.7864C16.1753 14.7917 16.2109 14.7765 16.2392 14.7783C16.3308 14.7846 16.3936 14.8201 16.473 14.8509C16.5223 14.8698 16.5854 14.8771 16.6181 14.8992C16.659 14.9268 16.6644 15.0195 16.7148 15.0439C16.7478 15.0599 16.8211 15.0378 16.876 15.0439C16.9624 15.0538 17.0798 15.1068 17.158 15.1083C17.2054 15.1093 17.2447 15.089 17.2868 15.0922C17.3847 15.0997 17.4615 15.1615 17.5374 15.2305C16.5667 16.7954 15.005 17.9568 13.1662 18.4007C13.1594 18.3302 13.1399 18.2593 13.1368 18.189C13.1305 18.0361 13.1537 17.9281 13.1289 17.7868C13.1102 17.68 13.0869 17.5162 13.0483 17.449C13.0051 17.3742 12.8356 17.2471 12.7502 17.1996C12.6938 17.1683 12.6263 17.1574 12.5648 17.1272C12.4336 17.0629 12.1793 16.9272 12.1217 16.7974C12.105 16.76 12.1072 16.7106 12.0893 16.6688C12.0544 16.5864 11.9805 16.5149 11.9282 16.4354C11.8287 16.2837 11.7483 16.0934 11.6462 15.9368C11.5945 15.8572 11.5497 15.7669 11.4931 15.7036C11.4599 15.6662 11.3537 15.631 11.3401 15.5748C11.3219 15.5005 11.2668 15.3984 11.2756 15.3414C11.2872 15.2646 11.437 15.2025 11.4368 15.1324C11.4365 15.0729 11.3568 15.0382 11.3401 14.9877C11.2994 14.8647 11.3639 14.7924 11.4125 14.6901C11.4286 14.6564 11.4443 14.6023 11.461 14.5775C11.4905 14.5333 11.5505 14.5208 11.5898 14.473C11.6118 14.4461 11.6256 14.3902 11.6543 14.3523C11.7155 14.271 11.8144 14.2405 11.8396 14.1672C11.8602 14.1075 11.8722 13.8087 11.8476 13.7088C11.8336 13.6509 11.7796 13.6028 11.7591 13.548C11.7226 13.4509 11.714 13.3448 11.6139 13.3469C11.5521 13.3482 11.5085 13.4163 11.4688 13.4594C11.4593 13.5167 11.4643 13.5786 11.4043 13.5961C11.3127 13.6231 11.2776 13.4999 11.1707 13.4675C11.1282 13.4546 11.0604 13.4553 11.0338 13.4434C10.9558 13.4084 10.9307 13.2945 10.8484 13.2502C10.7797 13.2135 10.7208 13.2263 10.6791 13.1698C10.6618 13.1309 10.6754 13.061 10.6712 13.0089C10.5829 12.9574 10.508 12.765 10.4052 12.7196C10.337 12.6893 10.2327 12.6921 10.1474 12.6632C10.1073 12.6497 10.0764 12.6321 10.0345 12.6231C9.9828 12.6115 9.92961 12.6109 9.88961 12.5908C9.73007 12.5118 9.64399 12.2557 9.44642 12.2612C9.36219 12.2633 9.28101 12.342 9.20465 12.3415C9.12876 12.3411 9.00155 12.281 8.90634 12.2369C8.80743 12.1911 8.69794 12.166 8.61636 12.1244C8.55041 12.0907 8.50462 12.0291 8.44702 12.0035C8.40291 11.984 8.33834 11.9806 8.30217 11.9635C8.25069 11.9391 8.19692 11.8871 8.13286 11.8426C8.07204 11.8006 8.00627 11.7364 8.00388 11.682C8.00124 11.619 8.06187 11.5654 8.06837 11.5048C8.08913 11.3133 7.94773 11.1756 7.85877 11.0625C7.79284 10.9784 7.71551 10.9071 7.6494 10.8293C7.65309 10.7776 7.65309 10.7683 7.6494 10.7167C7.59936 10.6682 7.55723 10.5963 7.50431 10.5236C7.45649 10.4581 7.36328 10.3881 7.35125 10.3146C7.33641 10.2242 7.38566 10.1448 7.35125 10.0571C7.29389 9.91149 7.09136 9.97726 7.11742 10.1698C7.12473 10.2228 7.19965 10.2941 7.22228 10.3467C7.24545 10.4004 7.24097 10.4672 7.26254 10.5318C7.2833 10.5937 7.34579 10.6471 7.36739 10.7169C7.40158 10.827 7.40053 10.9456 7.43188 11.0145C7.45956 11.0756 7.5615 11.1334 7.50433 11.2074C7.42805 11.2233 7.39869 11.1471 7.35127 11.1029C7.3248 11.0782 7.22893 11.0315 7.21436 10.9743C7.20217 10.927 7.24443 10.8632 7.2304 10.8053C7.20272 10.6918 6.97317 10.6889 6.97236 10.5721C6.97194 10.4988 7.06838 10.49 7.06924 10.4191C7.06987 10.3416 6.96321 10.2759 6.94027 10.2101C6.91933 10.1497 6.91589 10.0536 6.90811 9.9688C6.90056 9.88913 6.91033 9.79689 6.89183 9.73544C6.87531 9.68018 6.79211 9.60422 6.73877 9.57454C6.6682 9.53533 6.61218 9.55161 6.57763 9.49417C6.54756 9.44402 6.52775 9.3392 6.52125 9.28512C6.50961 9.18839 6.5186 9.08264 6.51315 8.97941C6.50785 8.87603 6.49726 8.77686 6.51315 8.66577C6.55302 8.58797 6.62568 8.54962 6.66634 8.47255C6.69468 8.41897 6.69866 8.3527 6.73067 8.29566C6.7897 8.19059 6.9183 8.09352 7.00476 7.98995C7.09797 7.87839 7.18379 7.77152 7.23834 7.64399C7.25793 7.59874 7.31038 7.49839 7.30283 7.4429C7.29224 7.36557 7.14618 7.30179 7.15771 7.2097C7.16502 7.15266 7.24642 7.15348 7.27067 7.09717C7.28309 7.06812 7.29423 6.98702 7.29489 6.95231C7.29609 6.87475 7.25502 6.79388 7.27067 6.71102C7.2839 6.64034 7.38931 6.61169 7.33515 6.53407C7.28141 6.45722 7.18497 6.57554 7.12555 6.52597C7.071 6.48026 7.13653 6.42505 7.14159 6.34093C7.14358 6.30748 7.12201 6.26921 7.12555 6.24441C7.13045 6.20847 7.20062 6.14792 7.18193 6.12378C7.15281 6.08695 7.12096 6.01261 7.0754 5.95326C7.97416 5.23432 9.05135 4.7289 10.229 4.51512Z" fill="white"/>
</svg>
